# xmcd
#
# Track frame offsets:
#	150
#	11576
#	23066
#	35122
#	49161
#	59760
#	70775
#	83531
#	95003
#	106630
#	117354
#	131549
#	143692
#	156184
#	167649
#	179820
#
# Disc length: 2552 seconds
#
# Revision: 0
# Processed by: cddbd v1.5.2PL0 Copyright (c) Steve Scherf et al.
# Submitted via: dBpowerAMP V4.0
#
DISCID=d809f610
DTITLE=Various Artist - The Country Club Collection Country Ballads CD2
DYEAR=2006
DGENRE=Country
TTITLE0=Patsy Cline - The Heart You Break May Be Your Own
TTITLE1=Kenny Rogers - Poem For A Little Lady
TTITLE2=Willie Nelson - Happiness Lives Next Door
TTITLE3=Billie Joe Spears - Which Way You Goin' Billy
TTITLE4=Hank Locklin - Please Help Me I'm Falling
TTITLE5=Janie Fricke - Don't Worry About Me Baby
TTITLE6=Dolly Parton - Little Blossom
TTITLE7=I'm Leaving It Up To You - Freddy Fender
TTITLE8=Lynn Anderson - We've Only Just Begun
TTITLE9=Carl Belew - Am I That Easy To Forget
TTITLE10=Margo Smith - It Only Hurts For A Little While
TTITLE11=Stonewall Jackson - I Love You Because
TTITLE12=Wanda Jackson - Crazy
TTITLE13=Skeeter Davis - Crying Time
TTITLE14=Glen Cambell - By The Time I Get To Phoenix
TTITLE15=Charley pride - There Goes My Everything
EXTD=
EXTT0=
EXTT1=
EXTT2=
EXTT3=
EXTT4=
EXTT5=
EXTT6=
EXTT7=
EXTT8=
EXTT9=
EXTT10=
EXTT11=
EXTT12=
EXTT13=
EXTT14=
EXTT15=
PLAYORDER=
